<?xml version="1.0" encoding="utf-8"?>
<!-- Generator: Adobe Illustrator 21.1.0, SVG Export Plug-In . SVG Version: 6.00 Build 0)  -->
<svg version="1.1" id="Layer_1" xmlns="http://www.w3.org/2000/svg" xmlns:xlink="http://www.w3.org/1999/xlink" x="0px" y="0px"
	 viewBox="0 0 92.1 92" style="enable-background:new 0 0 92.1 92;" xml:space="preserve">
<path id="in" d="M51,38.4c1.5-1.6,2.8-3.3,4.5-4.7c4.4-3.7,9.5-5.2,15.2-4.6c2.5,0.3,5,0.5,7.4,1.1c6.9,1.9,10.7,6.9,12.5,13.6
	c1,3.8,1.5,7.8,1.5,11.7c0,11.6,0,23.3,0,34.9c0,1.6,0,1.6-1.6,1.6c-5.4,0-10.7,0-16.1,0c-1.6,0-1.6,0-1.6-1.6c0-10.1,0-20.2,0-30.2
	c0-2.5-0.2-5.1-0.8-7.6c-1-4.4-3.9-6.5-8.4-6.6c-1.4,0-2.9,0.1-4.3,0.4c-4.4,1.1-6.3,4.5-7,8.6c-0.4,2-0.5,4.1-0.5,6.2
	c0,9.8,0,19.5,0,29.3c0,1.3-0.4,1.6-1.6,1.5c-5.4,0-10.9,0-16.3,0c-1.1,0-1.5-0.3-1.5-1.5c0-19.5,0-39,0-58.6c0-1.2,0.4-1.6,1.6-1.5
	c5.2,0.1,10.5,0.1,15.7,0c1,0,1.4,0.3,1.4,1.4C51,34,51,36.3,51,38.4z M20.8,31.9c0-1.1-0.3-1.5-1.4-1.4c-5.5,0.1-11,0-16.6,0
	c-1.1,0-1.4,0.3-1.4,1.4c0,19.6,0,39.2,0,58.8c0,1.1,0.4,1.4,1.4,1.4c5.4,0,10.9,0,16.3,0c1.6,0,1.6,0,1.6-1.6c0-9.8,0-19.5,0-29.3
	C20.8,51.4,20.8,41.7,20.8,31.9z M22.3,11.3C22.3,5,17.3,0,11.2,0C5,0,0,4.9,0,11.1c0,6.2,4.9,11.1,11,11.1
	C17.3,22.3,22.2,17.4,22.3,11.3z"/>
</svg>
