<svg version="1.1" id="footer-logo" xmlns="http://www.w3.org/2000/svg" xmlns:xlink="http://www.w3.org/1999/xlink" x="0px"
	 y="0px" viewBox="0 0 155 83" style="enable-background:new 0 0 155 83;" xml:space="preserve">
<path id="companies" d="M2,80.7c-1.3-1.5-2-3.7-2-6.5c0-2.8,0.7-4.9,2-6.5c1.3-1.5,3-2.3,5-2.3c1.8,0,3.2,0.5,4.4,1.5
	c1.1,1,1.8,2.4,2.1,4.3c0,0.2-0.1,0.2-0.3,0.2h-1.5c-0.2,0-0.3-0.1-0.3-0.3c-0.5-2.5-2-3.8-4.4-3.8c-1.5,0-2.6,0.6-3.5,1.8
	c-0.9,1.2-1.3,2.9-1.3,5c0,2.2,0.4,3.8,1.3,5c0.9,1.2,2.1,1.8,3.5,1.8c2.4,0,3.9-1.3,4.4-3.8c0-0.2,0.1-0.2,0.3-0.2h1.5
	c0.2,0,0.3,0.1,0.3,0.2c-0.2,1.9-0.9,3.3-2.1,4.3C10.2,82.5,8.8,83,7,83C5,83,3.3,82.2,2,80.7z M21.6,80.7c-1.3-1.5-2-3.7-2-6.5
	c0-2.8,0.7-5,2-6.5c1.3-1.5,3-2.3,4.9-2.3s3.6,0.8,4.9,2.3c1.3,1.5,2,3.7,2,6.5c0,2.8-0.7,5-2,6.5c-1.3,1.5-3,2.3-4.9,2.3
	S22.9,82.2,21.6,80.7z M23.1,69.2c-0.9,1.2-1.3,2.9-1.3,5c0,2.2,0.4,3.9,1.3,5c0.9,1.2,2,1.8,3.5,1.8c1.5,0,2.6-0.6,3.5-1.8
	c0.9-1.2,1.3-2.9,1.3-5c0-2.2-0.4-3.9-1.3-5c-0.9-1.2-2-1.8-3.5-1.8C25.1,67.4,23.9,68,23.1,69.2z M40.6,82.5V66
	c0-0.2,0.1-0.2,0.2-0.2h2.4c0.2,0,0.3,0.1,0.4,0.2l3.4,9.2l3.4-9.2c0.1-0.2,0.2-0.2,0.4-0.2h2.4c0.2,0,0.2,0.1,0.2,0.2v16.5
	c0,0.2-0.1,0.2-0.2,0.2h-1.6c-0.2,0-0.2-0.1-0.2-0.2V68.9L47.9,78c-0.1,0.1-0.2,0.2-0.3,0.2h-1.2c-0.1,0-0.2-0.1-0.3-0.2l-3.5-9.1
	v13.6c0,0.2-0.1,0.2-0.2,0.2h-1.6C40.7,82.8,40.6,82.7,40.6,82.5z M60.7,82.5V66c0-0.2,0.1-0.2,0.2-0.2h5c1.8,0,3.1,0.4,4,1.3
	s1.4,2,1.4,3.5c0,1.5-0.5,2.6-1.4,3.5c-0.9,0.9-2.3,1.3-4,1.3h-3.2v7.3c0,0.2-0.1,0.2-0.2,0.2H61C60.8,82.8,60.7,82.7,60.7,82.5z
	 M62.8,73.3h3.6c2,0,2.9-0.9,2.9-2.8c0-1.9-1-2.8-2.9-2.8h-3.6V73.3z M75,82.5c0,0,0-0.1,0-0.2L80.2,66c0-0.2,0.1-0.2,0.2-0.2h2
	c0.1,0,0.2,0.1,0.3,0.2l5.2,16.4c0,0,0,0.1,0,0.2c0,0.2-0.1,0.2-0.3,0.2H86c-0.1,0-0.2-0.1-0.3-0.2l-1.4-4.7h-5.7l-1.4,4.7
	c0,0.2-0.1,0.3-0.3,0.3h-1.5C75.1,82.8,75,82.7,75,82.5z M79.1,75.9h4.5l-2.3-7.6L79.1,75.9z M94.1,82.5V66c0-0.2,0.1-0.2,0.2-0.2h2
	c0.2,0,0.3,0.1,0.4,0.2l6.6,13.3V66c0-0.2,0.1-0.2,0.2-0.2h1.6c0.2,0,0.2,0.1,0.2,0.2v16.5c0,0.2-0.1,0.2-0.2,0.2h-2
	c-0.2,0-0.3-0.1-0.4-0.2l-6.6-13.3v13.3c0,0.2-0.1,0.2-0.2,0.2h-1.6C94.2,82.8,94.1,82.7,94.1,82.5z M112.4,82.5v-1.5
	c0-0.2,0.1-0.2,0.2-0.2h3.3V67.7h-3c-0.2,0-0.2-0.1-0.2-0.2V66c0-0.2,0.1-0.2,0.2-0.2h8.1c0.2,0,0.2,0.1,0.2,0.2v1.5
	c0,0.2-0.1,0.2-0.2,0.2h-3v13.1h3.3c0.2,0,0.2,0.1,0.2,0.2v1.5c0,0.2-0.1,0.2-0.2,0.2h-8.6C112.5,82.8,112.4,82.7,112.4,82.5z
	 M127.8,82.5V66c0-0.2,0.1-0.2,0.2-0.2h8.7c0.2,0,0.2,0.1,0.2,0.2v1.5c0,0.2-0.1,0.2-0.2,0.2h-6.9v5.2h6.1c0.2,0,0.2,0.1,0.2,0.2
	v1.5c0,0.2-0.1,0.2-0.2,0.2h-6.1v6h7.1c0.2,0,0.2,0.1,0.2,0.2v1.5c0,0.2-0.1,0.2-0.2,0.2H128C127.9,82.8,127.8,82.7,127.8,82.5z
	 M143.4,77.7c0-0.2,0.1-0.2,0.2-0.2h1.6c0.2,0,0.2,0.1,0.2,0.2c0,0.9,0.3,1.7,1,2.3c0.7,0.7,1.6,1,2.8,1c1.2,0,2.2-0.3,2.8-0.8
	s0.9-1.4,0.9-2.4c0-0.8-0.3-1.4-1-1.8c-0.7-0.4-1.6-0.8-3-1.1c-1.8-0.5-3.1-1-4-1.7c-0.9-0.7-1.3-1.7-1.3-3c0-1.4,0.5-2.6,1.5-3.4
	c1-0.8,2.3-1.3,3.8-1.3c1.6,0,3,0.4,4,1.3c1,0.9,1.5,2,1.5,3.3c0,0.2-0.1,0.2-0.2,0.2h-1.5c-0.2,0-0.2-0.1-0.2-0.2
	c0-0.7-0.3-1.4-1-1.9c-0.7-0.5-1.5-0.8-2.4-0.8c-0.9,0-1.7,0.2-2.3,0.7c-0.6,0.5-0.9,1.1-0.9,1.9c0,0.3,0,0.6,0.1,0.9
	c0.1,0.3,0.2,0.5,0.5,0.7c0.2,0.2,0.4,0.4,0.6,0.5c0.2,0.1,0.5,0.3,0.9,0.4c0.4,0.1,0.7,0.2,0.9,0.3l1.1,0.3c1.7,0.5,3,1,3.8,1.7
	c0.8,0.6,1.2,1.6,1.2,2.9c0,1.8-0.5,3.1-1.6,4c-1.1,0.9-2.4,1.4-4.1,1.4c-1.8,0-3.2-0.5-4.3-1.4C143.9,80.6,143.4,79.3,143.4,77.7z"
	/>
<path id="r2" d="M0.3,43.3h11.9c0.1,0,0.2-0.1,0.2-0.2v-2.4c0-0.1-0.1-0.2-0.2-0.2H4.5l4.2-3.9c1-0.9,1.6-1.8,2.1-2.5
	c0.4-0.8,0.6-1.7,0.6-2.8c0-1.5-0.5-2.8-1.5-3.8c-1-1-2.4-1.4-4.1-1.4c-1.7,0-3,0.5-4.1,1.6c-1.1,1.1-1.6,2.5-1.6,3.9v0.2
	c0,0.1,0.1,0.2,0.2,0.2h2.5c0.1,0,0.2-0.1,0.2-0.2l0-0.2c0.1-0.8,0.3-1.5,0.9-1.9c0.5-0.5,1.1-0.7,1.9-0.7c0.8,0,1.4,0.2,1.9,0.7
	c0.5,0.5,0.7,1.1,0.7,1.9c0,1.1-0.6,2.1-1.7,3.2l-6.4,6c-0.2,0.1-0.3,0.3-0.3,0.5v1.9C0.1,43.3,0.1,43.3,0.3,43.3z M0.3,57h11.9
	c0.1,0,0.2-0.1,0.2-0.2v-4c0-0.1-0.1-0.2-0.2-0.2H0.3c-0.1,0-0.2,0.1-0.2,0.2v4C0.1,56.9,0.2,57,0.3,57z M0.3,17h2.7
	c0.1,0,0.2-0.1,0.2-0.2v-7h2.6l3.5,7.1C9.2,17,9.3,17,9.4,17h2.8c0.1,0,0.2-0.1,0.2-0.2c0,0,0,0,0-0.1L9,9.5c0.7-0.2,1.3-0.5,1.8-1
	c1-0.9,1.5-2.1,1.5-3.6c0-1.5-0.5-2.7-1.5-3.6C9.8,0.4,8.4,0,6.6,0H0.3C0.2,0,0.1,0.1,0.1,0.2v16.6C0.1,16.9,0.2,17,0.3,17z
	 M3.1,2.8h3.6c0.8,0,1.4,0.2,1.8,0.5C9,3.7,9.2,4.2,9.2,4.9c0,0.7-0.2,1.2-0.7,1.5C8.1,6.8,7.5,7,6.7,7H3.1V2.8z"/>
</svg>
