<svg width="16" height="69" viewBox="0 0 16 69" fill="none" xmlns="http://www.w3.org/2000/svg">
<path d="M14.7285 49.299H5.423L10.467 44.502C11.6285 43.3845 12.461 42.3515 12.9605 41.404C13.4585 40.456 13.7095 39.336 13.7095 38.0435C13.7095 36.1635 13.1005 34.6385 11.881 33.469C10.6615 32.299 9.0195 31.7145 6.956 31.7145C4.941 31.7145 3.2925 32.358 2.0105 33.6445C0.7285 34.9315 0.0295 36.6455 0.0295 38.355V38.5485C0.0295 38.6805 0.1385 38.787 0.2705 38.787H3.329C3.461 38.787 3.5675 38.681 3.57 38.5495L3.587 38.35C3.664 37.329 4.008 36.5415 4.62 35.987C5.232 35.4335 6.0115 35.1565 6.9565 35.1565C7.9205 35.1565 8.6885 35.441 9.264 36.0095C9.836 36.5785 10.1235 37.3285 10.1235 38.262C10.1235 39.574 9.444 40.8765 8.0845 42.169L0.318 49.484C0.106 49.655 0 49.8775 0 50.1525V52.4565C0 52.646 0.0965 52.741 0.289 52.741H14.728C14.8615 52.741 14.97 52.6325 14.97 52.499V49.541C14.97 49.4075 14.862 49.299 14.7285 49.299ZM14.7285 64.011H0.242C0.1085 64.011 0 64.1195 0 64.253V69.1025C0 69.236 0.1085 69.3445 0.242 69.3445H14.7285C14.862 69.3445 14.9705 69.236 14.9705 69.1025V64.253C14.97 64.119 14.862 64.011 14.7285 64.011ZM15.0445 20.401L10.8635 11.5195C11.733 11.253 12.475 10.8535 13.089 10.3185C14.312 9.253 14.924 7.802 14.924 5.9655C14.924 4.129 14.31 2.6755 13.0825 1.6055C11.8535 0.535 10.1275 0 7.9025 0H0.242C0.1085 0 0 0.1085 0 0.242V20.4955C0 20.629 0.1085 20.7375 0.242 20.7375H3.4895C3.623 20.7375 3.7315 20.629 3.7315 20.4955V11.916H6.8535L11.0755 20.574C11.149 20.714 11.224 20.7375 11.3785 20.7375H14.8225C14.956 20.7375 15.0645 20.629 15.0645 20.4955C15.064 20.466 15.061 20.4355 15.0445 20.401ZM10.2885 7.8235C9.726 8.2575 8.9805 8.4745 8.055 8.4745H3.731V3.442H8.055C8.99 3.442 9.7375 3.659 10.2965 4.0925C10.8555 4.526 11.135 5.148 11.135 5.958C11.135 6.768 10.854 7.3895 10.2885 7.8235Z"/>
</svg>