<?xml version="1.0" encoding="utf-8"?>
<!-- Generator: Adobe Illustrator 21.1.0, SVG Export Plug-In . SVG Version: 6.00 Build 0)  -->
<svg version="1.1" id="slider" xmlns="http://www.w3.org/2000/svg" xmlns:xlink="http://www.w3.org/1999/xlink" x="0px" y="0px"
	 viewBox="0 0 24 1240" style="enable-background:new 0 0 24 1240;" xml:space="preserve">
<style type="text/css">
	.st0{fill:#E03C2D;}
</style>
<path id="path" class="st0" d="M13,590h-2V0h2V590z M13,650h-2v590h2V650z M24,592v56c0,1.1-0.9,2-2,2H2c-1.1,0-2-0.9-2-2v-56
	c0-1.1,0.9-2,2-2h20C23.1,590,24,590.9,24,592z M8,600H6v40h2V600z M13,600h-2v40h2V600z M18,600h-2v40h2V600z"/>
</svg>
