<?xml version="1.0" encoding="utf-8"?>
<!-- Generator: Adobe Illustrator 21.1.0, SVG Export Plug-In . SVG Version: 6.00 Build 0)  -->
<svg version="1.1" id="Layer_1" xmlns="http://www.w3.org/2000/svg" xmlns:xlink="http://www.w3.org/1999/xlink" x="0px" y="0px"
	 viewBox="0 0 10.4 9.1" style="enable-background:new 0 0 10.4 9.1;" xml:space="preserve">
<style type="text/css">
	.st0{fill:#D22026;}
</style>
<path class="st0" d="M5.8,0.1C5.9,0,5.9,0,6,0C6,0,6.1,0,6.2,0.1l4,4c0.1,0.1,0.2,0.3,0.2,0.4S10.3,4.8,10.2,5l-4,4
	C6.1,9.1,6,9.1,6,9.1c-0.1,0-0.1,0-0.2-0.1L5.1,8.3c0,0-0.1-0.1-0.1-0.2s0-0.1,0.1-0.2l2.7-2.7H0.2C0.1,5.3,0,5.2,0,5.1V4
	c0-0.1,0.1-0.2,0.2-0.2h7.6L5.1,1.1C5.1,1.1,5,1,5,1s0-0.1,0.1-0.2L5.8,0.1z"/>
<g>
</g>
<g>
</g>
<g>
</g>
<g>
</g>
<g>
</g>
<g>
</g>
</svg>
